<svg width="24" height="24" viewBox="0 0 24 24" fill="none" xmlns="http://www.w3.org/2000/svg">
<path d="M14.6 8H21C21.5304 8 22.0391 8.21072 22.4142 8.58579C22.7893 8.96086 23 9.46957 23 10V12.105C23 12.365 22.949 12.625 22.85 12.866L19.755 20.381C19.6797 20.5644 19.5515 20.7213 19.3868 20.8317C19.2221 20.9421 19.0283 21.001 18.83 21.001H2C1.73478 21.001 1.48043 20.8956 1.29289 20.7081C1.10536 20.5206 1 20.2662 1 20.001V10C1 9.73479 1.10536 9.48043 1.29289 9.2929C1.48043 9.10536 1.73478 9 2 9H5.482C5.64218 8.99993 5.80001 8.96138 5.94218 8.88759C6.08436 8.81381 6.20673 8.70695 6.299 8.576L11.752 0.851002C11.8209 0.753315 11.9226 0.683563 12.0385 0.654393C12.1545 0.625222 12.277 0.638565 12.384 0.692002L14.198 1.6C14.7083 1.85513 15.116 2.27712 15.3534 2.7959C15.5908 3.31469 15.6436 3.89907 15.503 4.452L14.6 8ZM7 10.588V19H18.16L21 12.105V10H14.6C14.2954 9.99996 13.9948 9.93034 13.7212 9.79646C13.4476 9.66258 13.2082 9.46797 13.0213 9.22749C12.8343 8.987 12.7048 8.707 12.6425 8.40883C12.5803 8.11066 12.5869 7.8022 12.662 7.507L13.565 3.959C13.593 3.84847 13.5824 3.73169 13.5349 3.62802C13.4875 3.52434 13.406 3.44001 13.304 3.389L12.643 3.058L7.933 9.73C7.683 10.084 7.363 10.375 7 10.588ZM5 11H3V19H5V11Z" fill="white"/>
</svg>
